<svg width="64" height="64" viewBox="0 0 64 64" fill="none" xmlns="http://www.w3.org/2000/svg">
<path d="M30.6675 32H14.4499M13.9902 34.1259L11.3109 42.1296C9.84342 46.5131 9.10968 48.7048 9.63624 50.0544C10.0935 51.2267 11.0756 52.1152 12.2875 52.4536C13.683 52.8429 15.7907 51.8944 20.0062 49.9976L47.0312 37.8363C51.1459 35.9845 53.2032 35.0589 53.8389 33.7728C54.3915 32.6555 54.3915 31.3443 53.8389 30.2269C53.2032 28.9411 51.1459 28.0152 47.0312 26.1636L19.9595 13.9814C15.7568 12.0902 13.6554 11.1446 12.2613 11.5325C11.0506 11.8694 10.0686 12.7556 9.60974 13.9256C9.08136 15.2728 9.80725 17.4598 11.2591 21.8338L13.9954 30.0781C14.2448 30.8293 14.3695 31.2051 14.4187 31.5891C14.4623 31.9301 14.4619 32.2752 14.4174 32.616C14.3671 33 14.2415 33.3752 13.9902 34.1259Z" stroke="#05EF00" stroke-width="5.33333" stroke-linecap="round" stroke-linejoin="round"/>
</svg>
