<svg width="293" height="67" viewBox="0 0 293 67" fill="none" xmlns="http://www.w3.org/2000/svg">
<path d="M0.46875 1.5625C3.03125 1.875 5.625 2.09375 8.25 2.21875C10.9375 2.34375 13.375 2.40625 15.5625 2.40625C18.125 2.40625 20.625 2.34375 23.0625 2.21875C25.5625 2.15625 28.1875 2.03125 30.9375 1.84375C33.3125 1.71875 36 1.5625 39 1.375C42 1.1875 45.125 1 48.375 0.8125L48.9375 8.96875C48.9375 9.53125 48.9688 10.25 49.0312 11.125C49.0312 11.875 49.0312 12.8125 49.0312 13.9375C49.0938 15.0625 49.1562 16.375 49.2188 17.875C46.9688 19.8125 44.9375 21.6562 43.125 23.4062C41.375 25.0938 39.875 26.5938 38.625 27.9062C37.125 29.4688 35.8125 30.9062 34.6875 32.2188C33.25 33.9062 31.7188 35.9688 30.0938 38.4062C28.4688 40.7812 26.9375 43.125 25.5 45.4375C24.125 47.6875 23 49.7188 22.125 51.5312C21.25 53.2812 20.875 54.375 21 54.8125C21.0625 55.125 21.6875 55.3125 22.875 55.375C24.0625 55.375 25.5 55.3125 27.1875 55.1875C28.9375 55.0625 30.8438 54.875 32.9062 54.625C35.0312 54.3125 37 54 38.8125 53.6875C40.6875 53.3125 42.3438 52.9375 43.7812 52.5625C45.2188 52.1875 46.1562 51.8125 46.5938 51.4375C47.1562 50.9375 47.7812 50.0312 48.4688 48.7188C49.0938 47.5938 49.7812 46.0312 50.5312 44.0312C51.3438 41.9688 52.25 39.2188 53.25 35.7812C53.3125 38.3438 53.3438 40.5312 53.3438 42.3438C53.4062 44.1562 53.5 45.6875 53.625 46.9375C53.6875 48.375 53.7812 49.5625 53.9062 50.5C53.9688 51.5 54.0938 52.625 54.2812 53.875C54.4062 54.9375 54.5625 56.2812 54.75 57.9062C54.9375 59.5312 55.1875 61.3438 55.5 63.3438C51 62.7812 47.2188 62.4062 44.1562 62.2188C41.0938 61.9688 38.625 61.8125 36.75 61.75C34.5625 61.6875 32.8125 61.6875 31.5 61.75C30.125 61.9375 28.25 62.2188 25.875 62.5938C23.875 62.9062 21.2188 63.4062 17.9062 64.0938C14.5938 64.7188 10.4375 65.5625 5.4375 66.625C5.3125 65.4375 5.1875 64.4062 5.0625 63.5312C4.9375 62.6562 4.8125 61.875 4.6875 61.1875C4.5625 60.5 4.4375 59.8438 4.3125 59.2188C4.1875 58.6562 4.03125 57.875 3.84375 56.875C3.71875 56 3.5 54.9375 3.1875 53.6875C2.9375 52.375 2.625 50.75 2.25 48.8125C6 44.9375 9.09375 41.6875 11.5312 39.0625C14.0312 36.375 16.0312 34.1875 17.5312 32.5C19.2812 30.5 20.6562 28.9062 21.6562 27.7188C22.5938 26.5312 23.8125 25.0938 25.3125 23.4062C26.5625 21.9688 28.1875 20.1875 30.1875 18.0625C32.1875 15.875 34.5938 13.2812 37.4062 10.2812C34.5312 10.1562 31.8438 10.1562 29.3438 10.2812C26.9062 10.4062 24.7812 10.5938 22.9688 10.8438C20.8438 11.0938 18.875 11.4375 17.0625 11.875C15.375 12.375 13.6562 13.1875 11.9062 14.3125C10.4062 15.25 8.78125 16.5625 7.03125 18.25C5.28125 19.9375 3.625 22.125 2.0625 24.8125C1.9375 22.75 1.84375 21 1.78125 19.5625C1.71875 18.125 1.65625 16.9375 1.59375 16C1.53125 14.9375 1.46875 14.0625 1.40625 13.375C1.40625 12.6875 1.34375 11.7812 1.21875 10.6562C1.09375 9.71875 0.96875 8.53125 0.84375 7.09375C0.71875 5.59375 0.59375 3.75 0.46875 1.5625ZM81.2812 51.9062C83.0312 51.9062 84.6562 51.7188 86.1562 51.3438C87.4062 51.0312 88.5938 50.5312 89.7188 49.8438C90.9062 49.0938 91.6875 48 92.0625 46.5625C93.3125 46.8125 94.375 47.0312 95.25 47.2188C96.125 47.3438 96.875 47.4688 97.5 47.5938C98.1875 47.7812 98.7812 47.9062 99.2812 47.9688C99.7812 48.0938 100.375 48.2188 101.062 48.3438C101.688 48.4688 102.438 48.625 103.312 48.8125C104.25 48.9375 105.344 49.125 106.594 49.375C105.656 49.25 104.688 49.3438 103.688 49.6562C102.75 49.9688 101.844 50.3125 100.969 50.6875C99.9688 51.125 99.0312 51.6562 98.1562 52.2812C97.5938 52.6562 96.9375 53.2188 96.1875 53.9688C95.5 54.7188 94.5 55.4375 93.1875 56.125C91.875 56.8125 90.125 57.4062 87.9375 57.9062C85.8125 58.3438 83.0625 58.5 79.6875 58.375C75.625 58.25 72.2188 57.5312 69.4688 56.2188C66.7188 54.8438 64.5 53.1875 62.8125 51.25C61.125 49.25 59.9062 47.0938 59.1562 44.7812C58.4062 42.4688 58 40.3125 57.9375 38.3125C57.875 36.3125 58.4688 34.2188 59.7188 32.0312C60.9688 29.8438 62.7188 27.8438 64.9688 26.0312C67.2812 24.2188 70.0625 22.75 73.3125 21.625C76.5625 20.4375 80.125 19.8438 84 19.8438C86.25 19.8438 88.3125 20.125 90.1875 20.6875C92.125 21.1875 93.875 21.875 95.4375 22.75C97.0625 23.625 98.4688 24.625 99.6562 25.75C100.844 26.8125 101.844 27.9062 102.656 29.0312C103.469 30.2188 104.156 31.4688 104.719 32.7812C105.219 33.9062 105.625 35.1875 105.938 36.625C106.25 38.0625 106.344 39.5312 106.219 41.0312C101.469 41.1562 97.625 41.25 94.6875 41.3125C91.8125 41.375 89.5625 41.4062 87.9375 41.4062H83.7188H80.5312C79.4062 41.4062 77.9375 41.4375 76.125 41.5C74.3125 41.5625 72.0938 41.6562 69.4688 41.7812C69.7812 44.2812 70.5625 46.2188 71.8125 47.5938C73.125 48.9062 74.5 49.9062 75.9375 50.5938C77.5625 51.3438 79.3438 51.7812 81.2812 51.9062ZM72.8438 35.0312C74.8438 35.1562 76.5 35.25 77.8125 35.3125C79.1875 35.375 80.3125 35.4375 81.1875 35.5C82.125 35.5625 82.875 35.5938 83.4375 35.5938H85.7812C87.3438 35.5938 90.25 35.5 94.5 35.3125C94.3125 32.5625 93.7188 30.4688 92.7188 29.0312C91.7812 27.5938 90.7812 26.5312 89.7188 25.8438C88.4688 25.0938 87.0938 24.6562 85.5938 24.5312C81.5312 24.5938 78.5 25.4375 76.5 27.0625C74.5625 28.6875 73.3438 31.3438 72.8438 35.0312ZM112.875 56.6875C113.312 54.625 113.625 52.8125 113.812 51.25C114.062 49.625 114.25 48.2812 114.375 47.2188C114.5 45.9688 114.562 44.9062 114.562 44.0312C114.5 42.9688 114.438 41.7188 114.375 40.2812C114.375 38.7812 114.312 37.3125 114.188 35.875C114.125 34.375 114.031 33.0625 113.906 31.9375C113.781 30.75 113.625 29.9062 113.438 29.4062C113.188 28.9062 112.844 28.375 112.406 27.8125C111.531 26.75 110.25 25.7188 108.562 24.7188C110 24.4062 111.219 24.1562 112.219 23.9688C113.281 23.7188 114.156 23.5 114.844 23.3125C115.594 23.0625 116.25 22.8438 116.812 22.6562C117.312 22.4688 117.906 22.2812 118.594 22.0938C119.156 21.9688 119.844 21.8125 120.656 21.625C121.469 21.4375 122.406 21.2188 123.469 20.9688L123.188 29.5C125.188 27.125 127.219 25.3438 129.281 24.1562C131.344 22.9688 133.281 22.125 135.094 21.625C137.156 21 139.188 20.6875 141.188 20.6875C143.688 20.8125 146 21.2188 148.125 21.9062C150.312 22.5938 152.188 23.4062 153.75 24.3438C155.375 25.2188 156.688 26.1562 157.688 27.1562C158.688 28.1562 159.281 29.0312 159.469 29.7812C160.219 32.2188 160.406 34.4688 160.031 36.5312C159.656 38.5312 159.156 40.5 158.531 42.4375C157.969 44.3125 157.469 46.1875 157.031 48.0625C156.656 49.9375 156.812 51.9688 157.5 54.1562C157.75 54.7188 158 55.2812 158.25 55.8438C158.5 56.3438 158.812 56.8438 159.188 57.3438C159.562 57.8438 160 58.25 160.5 58.5625C159.812 58.5 159.125 58.4688 158.438 58.4688C157.75 58.4062 157.125 58.3438 156.562 58.2812C155.875 58.2188 155.25 58.1562 154.688 58.0938C154.062 58.0312 153.219 58 152.156 58C150.344 58 147.531 58.0938 143.719 58.2812C144.281 56.9688 144.719 55.875 145.031 55C145.406 54.0625 145.719 53.3125 145.969 52.75C146.219 52.0625 146.406 51.5312 146.531 51.1562C147.281 49.3438 147.719 47.2812 147.844 44.9688C148.031 42.6562 147.875 40.3125 147.375 37.9375C147.188 37.125 146.875 36.1562 146.438 35.0312C146 33.9062 145.406 32.8125 144.656 31.75C143.969 30.6875 143.125 29.7812 142.125 29.0312C141.188 28.2812 140.094 27.8438 138.844 27.7188C137.594 27.5938 136.188 27.9062 134.625 28.6562C133.125 29.4062 131.5 30.7812 129.75 32.7812C128.438 34.4688 127.406 36.5312 126.656 38.9688C125.969 41.0312 125.5 43.625 125.25 46.75C125 49.8125 125.375 53.4062 126.375 57.5312C125.5 57.4062 124.688 57.3438 123.938 57.3438C123.188 57.2812 122.562 57.2188 122.062 57.1562C121.438 57.0938 120.875 57.0312 120.375 56.9688C119.812 56.9688 119.188 56.9375 118.5 56.875C117.875 56.875 117.094 56.875 116.156 56.875C115.219 56.8125 114.125 56.75 112.875 56.6875ZM166.219 32.5938C168.656 32.6562 170.875 32.6875 172.875 32.6875C174.938 32.6875 176.719 32.6875 178.219 32.6875C179.969 32.6875 181.562 32.6562 183 32.5938C184.5 32.5938 186.406 32.5312 188.719 32.4062C190.719 32.3438 193.219 32.25 196.219 32.125C199.281 32 203 31.8438 207.375 31.6562L206.906 41.2188C203.406 40.9688 200.469 40.8125 198.094 40.75C195.781 40.625 193.906 40.5312 192.469 40.4688C190.781 40.4062 189.406 40.4062 188.344 40.4688C187.281 40.5312 185.781 40.625 183.844 40.75C182.219 40.875 180 41.0312 177.188 41.2188C174.438 41.3438 170.938 41.5625 166.688 41.875L166.219 32.5938ZM223.969 3.53125C227.094 3.71875 229.719 3.875 231.844 4C234.031 4.0625 235.844 4.125 237.281 4.1875C238.906 4.25 240.281 4.25 241.406 4.1875C242.531 4.125 244.062 3.96875 246 3.71875C247.625 3.53125 249.781 3.25 252.469 2.875C255.219 2.4375 258.625 1.875 262.688 1.1875C261.25 2.625 260.125 3.9375 259.312 5.125C258.562 6.25 257.969 7.21875 257.531 8.03125C257.031 9.03125 256.688 9.875 256.5 10.5625C256.375 11.1875 256.5 12.75 256.875 15.25C257.25 17.75 257.781 20.7188 258.469 24.1562C259.156 27.5312 259.906 31.1562 260.719 35.0312C261.531 38.8438 262.344 42.4375 263.156 45.8125C263.969 49.125 264.688 51.9688 265.312 54.3438C266 56.6562 266.5 58.0312 266.812 58.4688C267.75 59.7812 268.344 60.6562 268.594 61.0938C268.844 61.4688 269.281 61.8125 269.906 62.125C270.156 62.25 270.562 62.4375 271.125 62.6875C271.625 62.9375 272.281 63.25 273.094 63.625C273.969 64 275.062 64.4375 276.375 64.9375C273.938 65.0625 271.844 65.1562 270.094 65.2188C268.344 65.2188 266.906 65.25 265.781 65.3125C264.469 65.375 263.344 65.4375 262.406 65.5C261.469 65.5 260.344 65.5625 259.031 65.6875C257.906 65.8125 256.438 65.9375 254.625 66.0625C252.875 66.1875 250.812 66.3125 248.438 66.4375C249.688 65.5625 250.688 64.7812 251.438 64.0938C252.25 63.3438 252.875 62.7188 253.312 62.2188C253.812 61.5938 254.156 61.0312 254.344 60.5312C254.469 59.9688 254.562 59.125 254.625 58C254.688 57 254.688 55.6875 254.625 54.0625C254.562 52.375 254.406 50.1875 254.156 47.5L229.5 50.0312C228.875 51.0938 228.406 52.0312 228.094 52.8438C227.781 53.5938 227.562 54.25 227.438 54.8125C227.25 55.5 227.188 56.0625 227.25 56.5C227.375 57 227.594 57.5938 227.906 58.2812C228.219 58.9062 228.656 59.6562 229.219 60.5312C229.844 61.3438 230.75 62.3125 231.938 63.4375C230.375 63.375 228.781 63.3438 227.156 63.3438C225.531 63.3438 224.031 63.375 222.656 63.4375C221.031 63.5 219.438 63.5625 217.875 63.625C216.312 63.6875 214.531 63.7812 212.531 63.9062C210.844 64.0312 208.875 64.1875 206.625 64.375C204.312 64.5 201.844 64.6875 199.219 64.9375C200.844 64.1875 202.219 63.4375 203.344 62.6875C204.469 61.875 205.406 61.125 206.156 60.4375C207.031 59.6875 207.781 58.9688 208.406 58.2812C208.844 57.6562 209.719 56.2188 211.031 53.9688C212.344 51.6562 213.812 48.9375 215.438 45.8125C217.125 42.6875 218.875 39.3438 220.688 35.7812C222.562 32.2188 224.25 28.875 225.75 25.75C227.25 22.5625 228.469 19.8125 229.406 17.5C230.344 15.1875 230.812 13.6875 230.812 13C230.688 12.1875 230.375 11.2812 229.875 10.2812C229.438 9.40625 228.75 8.40625 227.812 7.28125C226.938 6.15625 225.656 4.90625 223.969 3.53125ZM253.031 40.5625C252.656 38.375 252.312 36.5 252 34.9375C251.688 33.3125 251.438 31.9688 251.25 30.9062C251 29.6562 250.812 28.5625 250.688 27.625C250.5 26.75 250.281 25.625 250.031 24.25C249.781 23.0625 249.469 21.5938 249.094 19.8438C248.781 18.0312 248.375 15.875 247.875 13.375C244.312 20.5 241.531 26.0312 239.531 29.9688C237.594 33.8438 236.188 36.6875 235.312 38.5C234.25 40.625 233.656 41.875 233.531 42.25L253.031 40.5625ZM272.906 25.0938L290.156 25.2812C289.156 29.0938 288.406 32.3438 287.906 35.0312C287.469 37.7188 287.188 39.9688 287.062 41.7812C286.812 43.8438 286.75 45.5938 286.875 47.0312C287.062 48.3438 287.375 49.75 287.812 51.25C288.188 52.5 288.75 53.9375 289.5 55.5625C290.25 57.1875 291.25 58.8125 292.5 60.4375C291.75 60.1875 290.938 60 290.062 59.875C289.188 59.75 288.375 59.6562 287.625 59.5938C286.75 59.5312 285.875 59.5312 285 59.5938C284.125 59.6562 283.156 59.75 282.094 59.875C281.219 60 280.156 60.1562 278.906 60.3438C277.656 60.5312 276.344 60.7812 274.969 61.0938C275.906 58.2812 276.625 55.8438 277.125 53.7812C277.688 51.7188 278.094 50 278.344 48.625C278.594 47 278.75 45.6875 278.812 44.6875C278.812 43.4375 278.812 42.0312 278.812 40.4688C278.812 38.8438 278.812 37.2812 278.812 35.7812C278.812 34.2812 278.781 32.9688 278.719 31.8438C278.656 30.6562 278.531 29.9062 278.344 29.5938L277.406 28.6562C277.031 28.3438 276.469 27.9062 275.719 27.3438C275.031 26.7188 274.094 25.9688 272.906 25.0938ZM279.562 10.6562C280.875 9.96875 282.188 9.78125 283.5 10.0938C284.875 10.4062 285.938 11 286.688 11.875C287.438 12.75 287.688 13.7812 287.438 14.9688C287.25 16.1562 286.25 17.3125 284.438 18.4375C282.625 19.5 281.031 19.875 279.656 19.5625C278.281 19.25 277.312 18.5938 276.75 17.5938C276.188 16.5938 276.094 15.4375 276.469 14.125C276.844 12.75 277.875 11.5938 279.562 10.6562Z" fill="#05EF00"/>
</svg>
